#tb 0: 1/600
0,          0,          0,        1,    58814, 0x5caad04b
0,         60,         60,        1,    58814, 0x98d8ceb8
0,        120,        120,        1,    58814, 0x8925cdb0
0,        180,        180,        1,    58814, 0x6ffc02c3
